<?xml version="1.0" encoding="UTF-8" standalone="no"?>
<!-- Generator: Adobe Illustrator 17.0.0, SVG Export Plug-In . SVG Version: 6.00 Build 0)  -->

<svg
   xmlns:dc="http://purl.org/dc/elements/1.1/"
   xmlns:cc="http://creativecommons.org/ns#"
   xmlns:rdf="http://www.w3.org/1999/02/22-rdf-syntax-ns#"
   xmlns:svg="http://www.w3.org/2000/svg"
   xmlns="http://www.w3.org/2000/svg"
   xmlns:sodipodi="http://sodipodi.sourceforge.net/DTD/sodipodi-0.dtd"
   xmlns:inkscape="http://www.inkscape.org/namespaces/inkscape"
   version="1.1"
   id="Ebene_1"
   x="0px"
   y="0px"
   width="398.99899"
   height="102.42"
   viewBox="0 0 398.99899 102.42"
   enable-background="new 0 0 500 240"
   xml:space="preserve"
   inkscape:version="0.48.4 r9939"
   sodipodi:docname="storeness-logo-full.svg"><metadata
     id="metadata27"><rdf:RDF><cc:Work
         rdf:about=""><dc:format>image/svg+xml</dc:format><dc:type
           rdf:resource="http://purl.org/dc/dcmitype/StillImage" /></cc:Work></rdf:RDF></metadata><defs
     id="defs25" /><sodipodi:namedview
     pagecolor="#ffffff"
     bordercolor="#666666"
     borderopacity="1"
     objecttolerance="10"
     gridtolerance="10"
     guidetolerance="10"
     inkscape:pageopacity="0"
     inkscape:pageshadow="2"
     inkscape:window-width="640"
     inkscape:window-height="480"
     id="namedview23"
     showgrid="false"
     fit-margin-top="0"
     fit-margin-left="0"
     fit-margin-right="0"
     fit-margin-bottom="0"
     inkscape:zoom="0.642"
     inkscape:cx="186.347"
     inkscape:cy="22.275"
     inkscape:window-x="75"
     inkscape:window-y="34"
     inkscape:window-maximized="0"
     inkscape:current-layer="Ebene_1" /><path
     d="M 72.704,102.42 V 52.774 h -8.83 v -7.575 h 8.83 V 31.145 h 10.554 v 14.054 h 8.83 v 7.575 h -8.83 v 49.646"
     id="path3"
     inkscape:connector-curvature="0"
     style="fill:#343434" /><path
     d="m 95.402,69.257 c 0,-7.488 1.959,-13.653 5.878,-18.494 3.918,-4.842 9.291,-7.263 16.118,-7.263 6.792,0 12.155,2.412 16.092,7.236 3.936,4.824 5.904,10.997 5.904,18.521 v 7.211 c 0,7.557 -1.959,13.732 -5.878,18.52 -3.918,4.79 -9.273,7.185 -16.065,7.185 -6.862,0 -12.252,-2.395 -16.17,-7.185 C 97.362,90.2 95.403,84.025 95.403,76.468 v -7.211 z m 10.606,7.167 c 0,5.167 0.94,9.41 2.821,12.726 1.881,3.318 4.754,4.976 8.621,4.976 3.762,0 6.591,-1.657 8.49,-4.976 1.898,-3.316 2.847,-7.559 2.847,-12.726 v -7.228 c 0,-5.098 -0.949,-9.313 -2.847,-12.648 -1.899,-3.334 -4.747,-5.002 -8.542,-5.002 -3.832,0 -6.688,1.659 -8.568,4.976 -1.881,3.317 -2.821,7.542 -2.821,12.675 v 7.227 z"
     id="path5"
     inkscape:connector-curvature="0"
     style="fill:#343434" /><path
     d="m 158.083,63.38 v 38.695 h -10.606 v -57.53 h 10.606 v 8.229 l 8.056,-8.229 h 10.606 L 158.083,63.38 z"
     id="path7"
     inkscape:connector-curvature="0"
     style="fill:#343434" /><path
     d="m 245.44,43.5 c 4.941,-0.208 8.794,1.829 11.546,5.485 2.751,3.658 4.128,9.335 4.128,17.033 v 36.056 H 250.507 V 66.121 c 0,-5.259 -0.749,-8.968 -2.247,-11.128 -1.497,-2.159 -3.762,-3.239 -6.791,-3.239 -2.16,0 -4.076,0.671 -5.748,2.012 -1.672,1.341 -3.029,3.16 -4.074,5.459 v 42.849 H 221.041 V 44.545 h 10.606 c 0,0 -0.026,5.403 0,5.359 4.138,-6.821 13.793,-6.404 13.793,-6.404 z"
     id="path9"
     inkscape:connector-curvature="0"
     style="fill:#343434" /><path
     d="m 289.357,102.172 c -6.722,0.009 -10.903,-2.334 -14.943,-7.002 -4.041,-4.667 -6.061,-10.64 -6.061,-17.919 v -8.255 c 0,-7.384 1.977,-13.479 5.93,-18.286 3.953,-4.807 8.978,-7.21 15.073,-7.21 6.408,0 11.338,2.187 14.785,6.557 3.449,4.372 5.173,10.249 5.173,17.634 v 7.314 h -30.407 v 2.246 c 0,0 -0.06,16.752 10.454,16.894 9.235,0.125 9.452,-9.875 9.452,-9.875 l 10.501,-0.093 c 10e-4,0 -0.092,17.968 -19.957,17.995 z m 0,-50.626 c -3.065,0 -5.521,1.499 -7.367,4.496 -1.846,2.998 -2.873,6.794 -3.082,11.387 h 19.906 v -2.156 c 0,-4.031 -0.802,-7.327 -2.404,-9.888 -1.602,-2.559 -3.954,-3.839 -7.053,-3.839 z"
     id="path11"
     inkscape:connector-curvature="0"
     style="fill:#343434" /><path
     d="m 343.051,86.916 c 0,-2.195 -0.724,-4.05 -2.168,-5.564 -1.446,-1.515 -4.172,-3.178 -8.177,-4.99 -5.817,-2.264 -10.128,-4.676 -12.931,-7.235 -2.805,-2.561 -4.206,-5.878 -4.206,-9.953 0,-4.354 1.715,-8.054 5.146,-11.103 3.43,-3.047 7.933,-4.571 13.505,-4.571 5.817,0 10.449,1.646 13.898,4.938 3.447,3.291 5.102,7.393 4.963,12.304 l -0.104,0.313 h -10.188 c 0,-2.682 -0.757,-4.989 -2.272,-6.923 -1.515,-1.933 -3.613,-2.899 -6.296,-2.899 -2.646,0 -4.711,0.749 -6.19,2.247 -1.481,1.497 -2.221,3.257 -2.221,5.276 0,2.16 0.635,3.866 1.907,5.12 1.271,1.254 4.014,2.892 8.229,4.911 5.921,2.125 10.318,4.537 13.192,7.236 2.873,2.699 4.31,6.156 4.31,10.37 0,4.668 -1.775,8.465 -5.328,11.391 -3.553,2.926 -8.221,4.389 -14.002,4.389 -6.235,0 -11.146,-1.768 -14.734,-5.304 -3.587,-3.534 -5.294,-7.671 -5.119,-12.408 l 0.104,-0.313 h 9.875 c 0.139,3.657 1.149,6.296 3.03,7.915 1.881,1.62 4.214,2.43 7.001,2.43 2.751,0 4.902,-0.705 6.452,-2.116 1.549,-1.412 2.324,-3.232 2.324,-5.461 z"
     id="path13"
     inkscape:connector-curvature="0"
     style="fill:#343434" /><path
     d="m 388.602,86.916 c 0,-2.195 -0.724,-4.05 -2.168,-5.564 -1.446,-1.515 -4.172,-3.178 -8.177,-4.99 -5.817,-2.264 -10.128,-4.676 -12.931,-7.235 -2.805,-2.561 -4.206,-5.878 -4.206,-9.953 0,-4.354 1.715,-8.054 5.146,-11.103 3.43,-3.047 7.933,-4.571 13.505,-4.571 5.817,0 10.449,1.646 13.898,4.938 3.447,3.291 5.102,7.393 4.963,12.304 l -0.104,0.313 H 388.34 c 0,-2.682 -0.757,-4.989 -2.272,-6.923 -1.515,-1.933 -3.613,-2.899 -6.296,-2.899 -2.646,0 -4.711,0.749 -6.19,2.247 -1.481,1.497 -2.221,3.257 -2.221,5.276 0,2.16 0.635,3.866 1.907,5.12 1.271,1.254 4.014,2.892 8.229,4.911 5.921,2.125 10.318,4.537 13.192,7.236 2.873,2.699 4.31,6.156 4.31,10.37 0,4.668 -1.775,8.465 -5.328,11.391 -3.553,2.926 -8.221,4.389 -14.002,4.389 -6.235,0 -11.146,-1.768 -14.734,-5.304 -3.587,-3.534 -5.294,-7.671 -5.119,-12.408 l 0.104,-0.313 h 9.875 c 0.139,3.657 1.149,6.296 3.03,7.915 1.881,1.62 4.214,2.43 7.001,2.43 2.751,0 4.902,-0.705 6.452,-2.116 1.548,-1.412 2.324,-3.232 2.324,-5.461 z"
     id="path15"
     inkscape:connector-curvature="0"
     style="fill:#343434" /><path
     d="m 194.024,102.145 c -6.722,0.009 -10.903,-2.334 -14.943,-7.002 -4.041,-4.667 -6.061,-10.64 -6.061,-17.919 v -8.255 c 0,-7.384 1.977,-13.479 5.93,-18.286 3.953,-4.807 8.978,-7.21 15.073,-7.21 6.408,0 11.338,2.187 14.785,6.557 3.449,4.372 5.173,10.249 5.173,17.634 v 7.314 h -30.407 v 2.246 c 0,0 -0.06,16.752 10.454,16.894 9.235,0.125 9.452,-9.875 9.452,-9.875 l 10.501,-0.093 c 0.001,0 -0.092,17.968 -19.957,17.995 z m -0.001,-50.626 c -3.065,0 -5.52,1.499 -7.367,4.496 -1.846,2.998 -2.873,6.794 -3.082,11.387 h 19.906 v -2.157 c 0,-4.031 -0.802,-7.327 -2.404,-9.888 -1.601,-2.558 -3.953,-3.838 -7.053,-3.838 z"
     id="path17"
     inkscape:connector-curvature="0"
     style="fill:#343434" /><g
     id="g19"
     transform="translate(-63.653,-39.855)"><path
       d="m 94.277,131.729 c 2.598,0 4.913,-0.362 6.947,-1.085 2.034,-0.723 3.785,-1.809 5.255,-3.256 1.47,-1.447 2.572,-3.141 3.307,-5.084 0.735,-1.943 1.102,-4.133 1.102,-6.571 0,-2.347 -0.331,-4.483 -0.991,-6.408 -0.66,-1.925 -1.652,-3.64 -2.973,-5.144 -1.322,-1.504 -3.139,-2.917 -5.452,-4.238 -2.313,-1.321 -5.121,-2.552 -8.425,-3.692 -4.74,-1.433 -8.927,-3.086 -12.561,-4.958 -3.634,-1.872 -6.716,-3.963 -9.245,-6.274 -2.529,-2.31 -4.426,-4.992 -5.691,-8.047 -1.265,-3.055 -1.897,-6.484 -1.897,-10.285 0,-3.915 0.703,-7.479 2.11,-10.694 1.407,-3.215 3.518,-6.079 6.332,-8.594 2.814,-2.515 6.03,-4.401 9.647,-5.658 3.617,-1.257 7.636,-1.886 12.057,-1.886 4.603,0 8.758,0.726 12.467,2.179 3.709,1.453 6.97,3.632 9.784,6.537 2.814,2.905 4.902,6.11 6.263,9.613 1.361,3.503 1.997,7.306 1.906,11.407 l -0.068,0.205 -0.068,0.205 h -6.665 -6.665 c 0,-2.904 -0.373,-5.536 -1.12,-7.897 -0.747,-2.361 -1.866,-4.451 -3.358,-6.269 -1.493,-1.818 -3.29,-3.181 -5.392,-4.09 -2.102,-0.909 -4.509,-1.363 -7.22,-1.363 -2.575,0 -4.857,0.379 -6.845,1.137 -1.988,0.758 -3.683,1.894 -5.084,3.409 -1.401,1.516 -2.452,3.239 -3.153,5.17 -0.701,1.931 -1.051,4.07 -1.051,6.417 0,2.119 0.376,4.07 1.128,5.853 0.752,1.783 1.88,3.398 3.384,4.845 1.504,1.447 3.498,2.829 5.981,4.145 2.483,1.316 5.457,2.566 8.921,3.751 4.534,1.415 8.527,3.086 11.979,5.014 3.452,1.928 6.363,4.112 8.733,6.552 2.37,2.441 4.147,5.242 5.332,8.401 1.185,3.159 1.777,6.678 1.777,10.557 0,4.084 -0.701,7.746 -2.102,10.985 -1.401,3.239 -3.503,6.057 -6.306,8.452 -2.803,2.396 -6.044,4.193 -9.724,5.39 -3.68,1.197 -7.799,1.796 -12.356,1.796 V 131.729 z M 72.094,47.399 c 2.814,-2.515 6.03,-4.401 9.647,-5.658 3.617,-1.257 7.636,-1.886 12.057,-1.886 4.603,0 8.758,0.726 12.467,2.179 3.709,1.453 6.97,3.632 9.784,6.537 2.814,2.905 4.902,6.11 6.263,9.613 1.361,3.503 1.997,7.306 1.906,11.407 l -0.068,0.205 -0.068,0.205 h -6.665 -6.665 c 0,-2.904 -0.373,-5.536 -1.12,-7.897 -0.747,-2.361 -1.866,-4.451 -3.358,-6.269 -1.493,-1.818 -3.29,-3.181 -5.392,-4.09 -2.102,-0.909 -4.509,-1.363 -7.22,-1.363 -2.575,0 -4.857,0.379 -6.845,1.137 -1.988,0.758 -3.683,1.894 -5.084,3.409"
       id="path21"
       inkscape:connector-curvature="0"
       style="fill:#fc8506" /></g></svg>